<?xml version="1.0" encoding="UTF-8" standalone="no"?>
<!-- Created with Inkscape (http://www.inkscape.org/) -->

<svg
   width="210mm"
   height="297mm"
   viewBox="0 0 210 297"
   version="1.1"
   id="svg1"
   inkscape:version="1.3.2 (091e20e, 2023-11-25, custom)"
   sodipodi:docname="logo.svg"
   xmlns:inkscape="http://www.inkscape.org/namespaces/inkscape"
   xmlns:sodipodi="http://sodipodi.sourceforge.net/DTD/sodipodi-0.dtd"
   xmlns="http://www.w3.org/2000/svg"
   xmlns:svg="http://www.w3.org/2000/svg">
  <sodipodi:namedview
     id="namedview1"
     pagecolor="#ffffff"
     bordercolor="#000000"
     borderopacity="0.25"
     inkscape:showpageshadow="2"
     inkscape:pageopacity="0.0"
     inkscape:pagecheckerboard="0"
     inkscape:deskcolor="#d1d1d1"
     inkscape:document-units="mm"
     inkscape:zoom="0.73139029"
     inkscape:cx="397.18876"
     inkscape:cy="670.64057"
     inkscape:window-width="1920"
     inkscape:window-height="1017"
     inkscape:window-x="-8"
     inkscape:window-y="-8"
     inkscape:window-maximized="1"
     inkscape:current-layer="layer1" />
  <defs
     id="defs1">
    <rect
       x="266.61552"
       y="832.66077"
       width="135.35865"
       height="61.526658"
       id="rect9" />
    <rect
       x="226.965"
       y="805.31558"
       width="267.98277"
       height="138.09316"
       id="rect7" />
  </defs>
  <g
     inkscape:label="SlÄnis 1"
     inkscape:groupmode="layer"
     id="layer1">
    <path
       style="fill:#1d9c1d;fill-opacity:0.592157;stroke:#000000;stroke-width:0.104551"
       id="path4"
       sodipodi:type="arc"
       sodipodi:cx="112.14371"
       sodipodi:cy="113.22898"
       sodipodi:rx="59.686565"
       sodipodi:ry="58.239559"
       sodipodi:start="5.8283056"
       sodipodi:end="5.8218468"
       sodipodi:open="true"
       sodipodi:arc-type="arc"
       d="M 165.76098,87.641183 A 59.686565,58.239559 0 0 1 138.4538,165.505 59.686565,58.239559 0 0 1 58.611403,138.9856 59.686565,58.239559 0 0 1 85.660742,61.036139 59.686565,58.239559 0 0 1 165.59049,87.303811" />
    <path
       style="fill:#280b0b;fill-opacity:0.592157;stroke:#000000;stroke-width:0.13082;stroke-opacity:0.95082"
       id="path7"
       sodipodi:type="arc"
       sodipodi:cx="112.68635"
       sodipodi:cy="113.22897"
       sodipodi:rx="46.829422"
       sodipodi:ry="44.477982"
       sodipodi:start="5.8283056"
       sodipodi:end="5.8218468"
       sodipodi:open="true"
       sodipodi:arc-type="arc"
       d="M 154.75387,93.687383 A 46.829422,44.477982 0 0 1 133.32895,153.15256 46.829422,44.477982 0 0 1 70.685491,132.89949 46.829422,44.477982 0 0 1 91.908105,73.368915 46.829422,44.477982 0 0 1 154.6201,93.42973" />
    <text
       xml:space="preserve"
       transform="matrix(7.571265,-1.4165774e-4,1.054512e-4,5.6499198,-1940.6042,-4629.3749)"
       id="text9"
       style="white-space:pre;shape-inside:url(#rect9);fill:#008000;fill-opacity:0.592157;stroke:#000000;stroke-width:0;stroke-dasharray:none;stroke-opacity:0.95082"><tspan
         x="266.61523"
         y="843.60812"
         id="tspan1">D</tspan></text>
  </g>
</svg>
